<!--
     Document automatically generated
     by mktimeline - text to svg timeline convertor
     version 02-feb-2013 (c) Bruno Oberle
     on Sat Apr 22 05:05:38 2023.

     DO NOT MODIFY THIS FILE!
-->

<svg xmlns="http://www.w3.org/2000/svg" version="1.1">

<style type="text/css" >
   <![CDATA[
   /* --- text --- */
   text {
      font-family:      Verdana;
   }
   /* --- grid --- */
   line.grid {
      stroke:           LightGray;
      stroke-width:     1px;
   }
   text.grid {
      fill:             Gray;
      font-size:        10pt;
   }
   /* --- event --- */
   circle.event {
      stroke:           black;
      stroke-width:     3px;
   }
   rect.event {
      stroke:           black;
      stroke-width:     3px;
   }
   text.event {
      fill:             Black;
      font-size:        10pt;
   }
   /* --- link --- */
   polyline.link {
      stroke:           black;
      stroke-width:     3px;
      fill:             none;
   }
   /* --- title --- */
   rect.title {
      stroke:           none;
      stroke-width:     0px;
      fill:             LightGray;
   }
   text.title {
      font-family:      Verdana;
      fill:             Black;
      font-size:        10pt;
   }
   ]]>
</style>

<!-- this rectangle is used as background color for the whole doc -->
<rect width="100%" height="100%" style="fill: white"/>

<rect x="0" y="0" height="420" width="370" style="fill: white;"/>
<line class="grid" x1="10" y1="10" x2="10" y2="410"/>
<text class="grid" x="12" y="410">2018</text>
<line class="grid" x1="60" y1="10" x2="60" y2="410"/>
<text class="grid" x="62" y="410">2019</text>
<line class="grid" x1="110" y1="10" x2="110" y2="410"/>
<text class="grid" x="112" y="410">2020</text>
<line class="grid" x1="160" y1="10" x2="160" y2="410"/>
<text class="grid" x="162" y="410">2021</text>
<line class="grid" x1="210" y1="10" x2="210" y2="410"/>
<text class="grid" x="212" y="410">2022</text>
<line class="grid" x1="260" y1="10" x2="260" y2="410"/>
<text class="grid" x="262" y="410">2023</text>
<line class="grid" x1="310" y1="10" x2="310" y2="410"/>
<text class="grid" x="312" y="410">2024</text>
<rect class="event" x="5" y="60" rx="5" ry="5" width="310" height="10" style="fill: green;"/>
<polyline class="link" points="10,60 10,50 20,50"/>
<text class="event" x="25" y="53">MAAP</text>
<rect class="event" x="55" y="110" rx="5" ry="5" width="10" height="10" style="fill: green;"/>
<polyline class="link" points="60,110 60,100 70,100"/>
<text class="event" x="75" y="103">Execution of Socrates</text>
<rect class="event" x="105" y="160" rx="5" ry="5" width="10" height="10" style="fill: green;"/>
<polyline class="link" points="110,160 110,150 120,150"/>
<text class="event" x="125" y="153">Trilateral Dashboard</text>
<rect class="event" x="155" y="210" rx="5" ry="5" width="10" height="10" style="fill: green;"/>
<polyline class="link" points="160,210 160,200 170,200"/>
<text class="event" x="175" y="203">EIS Pilot year</text>
<rect class="event" x="205" y="260" rx="5" ry="5" width="110" height="10" style="fill: green;"/>
<polyline class="link" points="210,260 210,250 220,250"/>
<text class="event" x="225" y="253">VEDA</text>
<rect class="event" x="255" y="310" rx="5" ry="5" width="10" height="10" style="fill: green;"/>
<polyline class="link" points="260,310 260,300 270,300"/>
<text class="event" x="275" y="303">Greenhouse Gas Center</text>

</svg>
